OpenSim_Sub11_CSPreOp_GRF.mot
version=1
nRows=70
nColumns=19
inDegrees=no
endheader
time	lFx	lFy	lFz	lCOPx	lCOPy	lCOPz	rFx	rFy	rFz	rCOPx	rCOPy	rCOPz	lMx	lMy	lMz	rMx	rMy	rMz
27.75000000	4.57282244	0.68618928	1.32840656	-0.00002023	0	0.00003528	-5.42974538	680.71963003	-63.50097007	0.45304505	0	-0.37010335	0	0.00013653	0	0	1.27409057	0
27.76000000	4.49277863	0.69651234	1.37974400	-0.00001070	0	0.00001873	-3.68401577	685.38160831	-64.04038032	0.45073936	0	-0.37012257	0	0.00007542	0	0	1.30017052	0.00000000
27.77000000	4.40314182	0.69108325	1.43688052	-0.00000331	0	0.00000582	-2.06273626	685.95300634	-64.31853491	0.44856895	0	-0.37009344	0	0.00002476	0	0	1.30499462	0.00000000
27.78000000	4.31382169	0.67984723	1.49567926	0.00000013	0	-0.00000022	-0.60936088	682.93430718	-64.38991716	0.44627064	0	-0.37007247	0	-0.00000011	0	0	1.31943746	0
27.79000000	4.24179547	0.69316515	1.56625921	0.00000095	0	-0.00000168	0.80804423	676.70029728	-64.26515920	0.44357596	0	-0.37012460	0	-0.00000694	0	0	1.33075724	0
27.80000000	4.19738853	0.71281909	1.63005975	0.00000071	0	-0.00000127	2.14567330	667.91851484	-63.98679987	0.44070277	0	-0.37021628	0	-0.00000579	0	0	1.34644912	0
27.81000000	4.12710300	0.70371276	1.66970788	0.00000039	0	-0.00000066	3.12804348	657.61750728	-63.53956396	0.43788048	0	-0.37028904	0	-0.00000232	0	0	1.33195176	-0.00000000
27.82000000	3.97547254	0.68023230	1.68967928	0.00000041	0	-0.00000051	3.71191659	647.11768957	-62.86229104	0.43527037	0	-0.37030610	0	0.00000209	0	0	1.25043502	0
27.83000000	3.75123170	0.72192384	1.71546003	0.00000084	0	-0.00000091	4.02622196	637.39006174	-62.03056647	0.43279449	0	-0.37029970	0	0.00000777	0	0	1.14432694	0
27.84000000	3.51165980	0.79987360	1.76147157	0.00000134	0	-0.00000148	4.21355610	629.02016002	-61.11613498	0.43045813	0	-0.37030006	0	0.00001323	0	0	1.04094275	0
27.85000000	3.26760994	0.84790459	1.80361077	0.00000094	0	-0.00000109	4.34371814	622.26689777	-60.06106162	0.42806355	0	-0.37030688	0	0.00001086	0	0	0.93392771	0
27.86000000	3.00862940	0.80997116	1.77870736	-0.00000231	0	0.00000243	4.58579716	617.25565594	-58.89833817	0.42560243	0	-0.37032564	0	-0.00001638	0	0	0.85750392	0
27.87000000	2.75069869	0.71518314	1.72544616	-0.00001070	0	0.00001169	4.95122848	614.01270299	-57.67635648	0.42313372	0	-0.37035475	0	-0.00009080	0	0	0.80385535	0.00000000
27.88000000	2.54952548	0.67201147	1.70329583	-0.00002401	0	0.00002661	5.37282987	612.58539690	-56.46229206	0.42076576	0	-0.37040338	0	-0.00021539	0	0	0.77004621	0.00000000
27.89000000	2.40961135	0.69383893	1.71169237	-0.00003287	0	0.00003709	5.92238278	612.87635737	-55.32695070	0.41825919	0	-0.37053262	0	-0.00031447	0	0	0.76517327	0
27.90000000	2.32779891	0.77634779	1.72332800	-0.00000949	0	0.00001253	6.85177774	614.71701739	-54.28982115	0.41552243	0	-0.37077000	0	-0.00014518	0	0	0.75794460	0
27.91000000	2.30063669	0.83190090	1.72382300	0.00009560	0	-0.00010231	8.24601836	617.70087108	-53.40014460	0.41262925	0	-0.37110658	0	0.00074831	0	0	0.69598791	0
27.92000000	2.30154171	0.82644598	1.71907390	0.00032840	0	-0.00036048	9.92208992	621.47996013	-52.72926879	0.40982617	0	-0.37150167	0	0.00283946	0	0	0.59956206	0
27.93000000	2.29542454	0.79329675	1.70146358	0.00064205	0	-0.00071470	11.81033701	625.86664301	-52.25402707	0.40694240	0	-0.37187654	0	0.00584800	0	0	0.49763458	0
27.94000000	2.26944636	0.74026953	1.67362936	0.00071868	0	-0.00081926	13.82782370	630.67484836	-51.96032207	0.40386479	0	-0.37217148	0	0.00712133	0	0	0.39663199	0
27.95000000	2.21920214	0.52245829	1.63229901	-0.00023624	0	0.00020404	15.84839201	635.61743577	-51.87954075	0.40059884	0	-0.37238788	0	-0.00039175	0	0	0.32793390	-0.00000000
27.96000000	2.11693225	0.06532697	1.59454354	-0.00344777	0	0.00373067	17.84179195	640.36107243	-52.00708064	0.39717150	0	-0.37252812	0	-0.02820154	0	0	0.28526472	0.00000000
27.97000000	1.91128678	-0.63174809	1.56746609	-0.00965047	0	0.01063792	19.90362175	644.57350411	-52.33404582	0.39372664	0	-0.37260171	0	-0.08477920	0	0	0.24967472	0
27.98000000	1.53258089	-1.11336348	1.51826862	-0.01644594	0	0.01839366	21.99137559	648.03544203	-52.78199824	0.39035440	0	-0.37262567	0	-0.15239102	0	0	0.20823651	0
27.99000000	1.15595928	0.04247495	1.18833222	-0.01371244	0	0.01592596	24.04323056	650.77726026	-53.30967885	0.38718482	0	-0.37260021	0	-0.14467059	0	0	0.20116590	0
28	1.50212393	5.44012053	0.23972476	0.02041658	0	-0.02103124	26.05642990	652.78307397	-53.87395341	0.38392707	0	-0.37255430	0	0.13532115	0	0	0.23955171	-0.00000000
28.01000000	3.86247369	17.67044162	-1.63061731	0.11444747	0	-0.12472104	28.17921128	654.09162211	-54.44218847	0.38050229	0	-0.37251603	0	0.96250254	0	0	0.30361376	0
28.02000000	8.15026981	37.98674073	-3.83567670	0.27266436	0	-0.30175948	30.40138610	654.66606631	-54.95523220	0.37707518	0	-0.37250533	0	2.43105115	0	0	0.34746976	0.00000000
28.03000000	12.13572123	64.74894643	-4.59345671	0.42247442	0	-0.47424379	32.52335484	654.59502265	-55.37792995	0.37395837	0	-0.37251509	0	3.89009955	0	0	0.35591655	0
28.04000000	13.59903138	94.75210775	-2.61798462	0.50324669	0	-0.57232620	34.46022995	653.93206715	-55.71557837	0.37099804	0	-0.37254227	0	4.41648800	0	0	0.34283190	0
28.05000000	12.30325532	125.42467728	1.67083160	0.52891629	0	-0.60753025	36.19732471	652.77986419	-56.01688399	0.36814811	0	-0.37256074	0	3.95801424	0	0	0.34613460	0
28.06000000	9.53319731	154.31846005	6.68637040	0.52962280	0	-0.61165118	37.79337512	651.21242421	-56.22899417	0.36523597	0	-0.37256010	0	3.02243822	0	0	0.34348496	0
28.07000000	6.64215457	179.05818881	11.17019716	0.52419458	0	-0.60701057	39.28952129	649.41544555	-56.39268669	0.36233785	0	-0.37257978	0	2.11054595	0	0	0.35783122	0
28.08000000	4.27691196	198.67251621	15.09227606	0.51911955	0	-0.60319916	40.77467385	647.57650743	-56.53574206	0.35948317	0	-0.37265421	0	1.20907857	0	0	0.37174651	0
28.09000000	2.66142878	214.38755589	18.62146826	0.51511995	0	-0.60195092	42.27064694	645.99129900	-56.63925480	0.35685466	0	-0.37273446	0	0.31996165	0	0	0.33697635	-0.00000000
28.10000000	1.61218568	228.79212679	21.81273822	0.51235739	0	-0.60224520	43.79873472	644.61230638	-56.77901447	0.35431553	0	-0.37276595	0	-0.48416567	0	0	0.26713152	0.00000000
28.11000000	0.79781556	244.25708552	24.69982884	0.51074436	0	-0.60319561	45.30166775	642.83295291	-57.04084858	0.35166203	0	-0.37270728	0	-1.16858407	0	0	0.23352229	0.00000000
28.12000000	-0.00217746	262.23735994	27.35479758	0.50974440	0	-0.60436275	46.79610487	639.41384133	-57.38181517	0.34871439	0	-0.37254696	0	-1.72146530	0	0	0.20579530	-0.00000000
28.13000000	-0.87364601	283.09956592	29.89447768	0.50843007	0	-0.60538790	48.12965247	632.83122699	-57.76892611	0.34565672	0	-0.37231325	0	-2.15555344	0	0	0.19884102	0.00000000
28.14000000	-1.76685194	306.47554257	32.33246656	0.50652170	0	-0.60615975	48.86909340	621.85718970	-58.01626401	0.34296908	0	-0.37200349	0	-2.48413891	0	0	0.20924785	0.00000000
28.15000000	-2.55275522	331.64065203	34.58474831	0.50434403	0	-0.60672941	48.62244321	605.87940773	-57.92226479	0.34076880	0	-0.37168423	0	-2.64856068	0	0	0.21061763	-0.00000000
28.16000000	-3.14871882	357.55354121	36.66467714	0.50220615	0	-0.60714745	47.31210884	584.98896372	-57.39960029	0.33915284	0	-0.37139809	0	-2.64266443	0	0	0.17382397	-0.00000000
28.17000000	-3.63535074	382.94801208	38.68708433	0.50001073	0	-0.60743708	45.00296658	559.43935457	-56.39093353	0.33782710	0	-0.37107461	0	-2.54837359	0	0	0.11830137	0.00000000
28.18000000	-4.10019768	406.75114425	40.69158978	0.49780431	0	-0.60768453	41.85619488	529.91334388	-54.83411346	0.33644104	0	-0.37062626	0	-2.43903221	0	0	0.06542604	0.00000000
28.19000000	-4.46706170	428.37792396	42.64466692	0.49551562	0	-0.60790641	38.23790351	497.70167026	-52.71120494	0.33521749	0	-0.37009960	0	-2.37778931	0	0	-0.03355127	0
28.20000000	-4.56634865	447.85990217	44.50300095	0.49326069	0	-0.60806374	34.44734072	464.50985483	-50.18707261	0.33489737	0	-0.36949088	0	-2.39168013	0	0	-0.19287645	0
28.21000000	-4.44839287	465.59674084	46.21577886	0.49102232	0	-0.60820972	30.60069123	431.50123777	-47.44041557	0.33547074	0	-0.36880624	0	-2.42076526	0	0	-0.34135289	0
28.22000000	-4.34797356	481.94049443	47.73446009	0.48878345	0	-0.60836869	26.78541500	399.15856087	-44.58044379	0.33604626	0	-0.36808640	0	-2.42373572	0	0	-0.40546550	0
28.23000000	-4.35998443	497.05607370	49.00742244	0.48659673	0	-0.60850941	23.27008431	368.03559614	-41.69327828	0.33662513	0	-0.36731636	0	-2.40798487	0	0	-0.41121485	0
28.24000000	-4.46306946	511.02521470	50.00415935	0.48429980	0	-0.60861730	20.18259103	338.59264451	-38.82756693	0.33779218	0	-0.36644443	0	-2.36775763	0	0	-0.42456157	0
28.25000000	-4.51767426	523.87980847	50.74658425	0.48166267	0	-0.60867407	17.33836396	311.02834941	-35.97666290	0.34001860	0	-0.36543019	0	-2.30135038	0	0	-0.49268514	0
28.26000000	-4.38238040	535.55718851	51.23076832	0.47858867	0	-0.60864585	14.56925222	285.16038011	-33.14994688	0.34266121	0	-0.36439684	0	-2.19157832	0	0	-0.54824317	0
28.27000000	-4.01188007	546.17864344	51.48866693	0.47538972	0	-0.60857041	11.88725331	261.01072198	-30.35867578	0.34496925	0	-0.36326467	0	-2.05900188	0	0	-0.48347708	-0.00000000
28.28000000	-3.51318593	555.69634267	51.54753095	0.47232419	0	-0.60847263	9.34026105	238.68793672	-27.56123743	0.34733137	0	-0.36202245	0	-1.90359502	0	0	-0.31353762	0
28.29000000	-3.06027216	564.06713842	51.50800904	0.46969722	0	-0.60840938	6.96058281	218.21018687	-24.77335166	0.35041820	0	-0.36076677	0	-1.75482947	0	0	-0.12665551	0.00000000
28.30000000	-2.59789221	571.36279516	51.40560459	0.46713888	0	-0.60835487	4.95161464	199.74499759	-22.19331098	0.35488569	0	-0.35935168	0	-1.58516296	0	0	-0.00875080	0.00000000
28.31000000	-1.91857651	578.04898053	51.33254443	0.46448008	0	-0.60832398	3.40870255	183.28658778	-20.06233973	0.35996100	0	-0.35777666	0	-1.43550797	0	0	0.03010259	-0.00000000
28.32000000	-1.03731330	584.55992369	51.31508700	0.46177682	0	-0.60834850	2.15765228	168.58367755	-18.32979489	0.36479217	0	-0.35631099	0	-1.27352983	0	0	0.09349055	-0.00000000
28.33000000	-0.19610243	591.05739277	51.44303114	0.45933721	0	-0.60845031	0.98341267	155.64243985	-16.63154811	0.36853992	0	-0.35531502	0	-1.16143577	0	0	0.21682085	0
28.34000000	0.57886178	597.54117876	51.66614914	0.45701161	0	-0.60861819	-0.01358003	144.82852874	-14.70279163	0.37109829	0	-0.35475476	0	-1.06602250	0	0	0.40644313	0.00000000
28.35000000	1.35109101	604.19877826	51.99266909	0.45472936	0	-0.60880067	-0.51727421	135.83747167	-12.56513796	0.37244857	0	-0.35460558	0	-0.97863889	0	0	0.60087291	-0.00000000
28.36000000	2.16031528	610.95064147	52.33160028	0.45240113	0	-0.60893604	-0.52337267	127.88894316	-10.53449663	0.37418397	0	-0.35471511	0	-0.86728811	0	0	0.71807617	-0.00000000
28.37000000	3.06024765	617.62057893	52.66338556	0.44992873	0	-0.60900136	-0.21842428	120.26029468	-8.89384652	0.37529179	0	-0.35494759	0	-0.76205302	0	0	0.75162542	0
28.38000000	4.11243706	623.95727663	52.92214523	0.44727106	0	-0.60902513	0.21661086	112.47150741	-7.72600964	0.37558224	0	-0.35526550	0	-0.67021420	0	0	0.78505363	0
28.39000000	5.19680119	629.89939399	53.12445019	0.44453068	0	-0.60903424	0.60118466	104.06984943	-6.86129686	0.37420583	0	-0.35617364	0	-0.60449601	0	0	0.81847755	0
28.40000000	6.07502698	635.47520209	53.31622833	0.44181255	0	-0.60901853	0.69369220	95.14472986	-6.15606206	0.37285130	0	-0.35851010	0	-0.54759754	0	0	0.87488167	0
28.41000000	6.65356701	640.71575035	53.50786562	0.43909732	0	-0.60901594	0.52307270	85.67041823	-5.44488239	0.37218558	0	-0.36302063	0	-0.47751220	0	0	0.95687725	0
28.42000000	7.10153994	645.53776477	53.66864002	0.43637816	0	-0.60905243	0.35410808	75.67288043	-4.68031676	0.37433519	0	-0.36906107	0	-0.38649971	0	0	0.99921213	-0.00000000
28.43000000	7.50229805	649.74537601	53.80489039	0.43378234	0	-0.60911575	0.07283206	65.49809522	-3.99051695	0.37657336	0	-0.37187184	0	-0.30952753	0	0	0.95527352	0.00000000
28.44000000	7.74264216	652.93888056	53.94173597	0.43145020	0	-0.60915718	-0.65089111	55.73495581	-3.55779368	0.36759056	0	-0.35854796	0	-0.24655819	0	0	0.83599784	0
